<?xml version="1.0" encoding="UTF-8"?>
<svg version="1.1" xmlns="http://www.w3.org/2000/svg" width="1280" height="854">
<path d="M0 0 C422.4 0 844.8 0 1280 0 C1280 281.82 1280 563.64 1280 854 C857.6 854 435.2 854 0 854 C0 572.18 0 290.36 0 0 Z " fill="#DA251C" transform="translate(0,0)"/>
<path d="M0 0 C0.66 0 1.32 0 2 0 C3.35295608 4.0337419 4.70375207 8.06819943 6.05273438 12.10327148 C6.50985465 13.46967057 6.96751771 14.83588822 7.42578125 16.2019043 C8.09265376 18.1900911 8.75742677 20.17897061 9.421875 22.16796875 C9.81987305 23.35672607 10.21787109 24.5454834 10.62792969 25.77026367 C11.74778595 29.17333306 12.79846009 32.59530837 13.84375 36.02197266 C15.93176662 42.83539288 18.14225938 49.60603168 20.3803978 56.37124634 C21.10343318 58.55697512 21.82476091 60.74326143 22.54568481 62.9296875 C23.57918236 66.0638314 24.61319431 69.19780477 25.64764404 72.33163452 C35.22865197 101.36161708 44.70749693 130.42017573 53.94680786 159.56103516 C54.1904306 160.32875244 54.43405334 161.09646973 54.68505859 161.88745117 C54.90941589 162.59767426 55.13377319 163.30789734 55.3649292 164.03964233 C55.93748077 165.80701356 56.55518504 167.5596029 57.17822266 169.30981445 C58 172 58 172 58 176 C119.05 176 180.1 176 243 176 C237.37414966 181.62585034 237.37414966 181.62585034 233.98828125 184.09375 C233.2398999 184.64232666 232.49151855 185.19090332 231.72045898 185.75610352 C230.92583252 186.33158936 230.13120605 186.9070752 229.3125 187.5 C228.475979 188.11093506 227.63945801 188.72187012 226.77758789 189.35131836 C224.18881152 191.23943916 221.59520648 193.12072963 219 195 C218.22301758 195.56348145 217.44603516 196.12696289 216.64550781 196.70751953 C212.18094238 199.94370323 207.7090766 203.16964261 203.23388672 206.39111328 C199.48640216 209.09012128 195.74344155 211.79538884 192 214.5 C190.50002146 215.58336304 189.00002146 216.66669638 187.5 217.75 C186.38625 218.554375 186.38625 218.554375 185.25 219.375 C178.5 224.25 178.5 224.25 176.25024414 225.87475586 C174.7493445 226.95878416 173.24853078 228.04293142 171.74780273 229.12719727 C168.01226033 231.82587655 164.27527746 234.52251312 160.53515625 237.21484375 C152.82536994 242.76804648 145.1424407 248.35439468 137.5 254 C129.081125 260.21885962 120.61505874 266.36907225 112.11474609 272.47607422 C110.01542217 273.9888865 107.92307362 275.51092385 105.83203125 277.03515625 C104.55475321 277.96102815 103.27741295 278.88681423 102 279.8125 C101.41822998 280.23950195 100.83645996 280.66650391 100.23706055 281.10644531 C96.22653544 284 96.22653544 284 94 284 C94.37286133 285.0830542 94.74572266 286.1661084 95.12988281 287.28198242 C96.53353285 291.36100818 97.93439005 295.44098876 99.33447266 299.52124023 C99.9369199 301.27572726 100.54009036 303.02996615 101.14404297 304.78393555 C102.01988282 307.32793803 102.89298024 309.87286876 103.765625 312.41796875 C104.02933899 313.18207565 104.29305298 313.94618256 104.5647583 314.73344421 C106.08505406 319.17680804 107.51432071 323.63939354 108.88476562 328.13134766 C110.95537049 334.90956765 113.15440063 341.6427971 115.3803463 348.37119484 C116.10347509 350.55709804 116.82498105 352.74353142 117.5460968 354.93009949 C118.57979711 358.06435909 119.6139843 361.19845739 120.64846802 364.3324585 C128.32270851 387.58927306 135.99294961 410.84883502 143.5201416 434.15371704 C144.2127175 436.29403935 144.9084172 438.43335347 145.6072998 440.57162476 C146.56052834 443.49038977 147.50259004 446.4125107 148.44140625 449.3359375 C148.72035233 450.18238327 148.9992984 451.02882904 149.28669739 451.90092468 C151.11439555 457.65681334 151.11439555 457.65681334 150 461 C149.51869629 460.64397705 149.03739258 460.2879541 148.54150391 459.92114258 C137.48744075 451.7488729 126.39075526 443.6401716 115.23388672 435.60888672 C111.48640216 432.90987872 107.74344155 430.20461116 104 427.5 C102.50002146 426.41663696 101.00002146 425.33330362 99.5 424.25 C96.5 422.08333333 93.5 419.91666667 90.5 417.75 C89.75758057 417.21383057 89.01516113 416.67766113 88.25024414 416.12524414 C86.7493445 415.04121584 85.24853078 413.95706858 83.74780273 412.87280273 C80.01226033 410.17412345 76.27527746 407.47748688 72.53515625 404.78515625 C64.74084153 399.17096822 56.975464 393.52114617 49.25 387.8125 C42.74934859 383.00937916 36.21208137 378.26564338 29.625 373.58203125 C25.21689104 370.44673882 20.82606186 367.28757336 16.4375 364.125 C15.67493896 363.57706787 14.91237793 363.02913574 14.12670898 362.46459961 C13.40298096 361.94260986 12.67925293 361.42062012 11.93359375 360.8828125 C11.24765137 360.39071289 10.56170898 359.89861328 9.85498047 359.39160156 C8 358 8 358 5.28515625 355.5546875 C3.12725936 353.72984498 3.12725936 353.72984498 0.60791016 354.23388672 C-2.12473243 355.03664205 -3.75617408 355.98699191 -6.01171875 357.703125 C-6.7601001 358.26459229 -7.50848145 358.82605957 -8.27954102 359.40454102 C-9.07416748 360.01354248 -9.86879395 360.62254395 -10.6875 361.25 C-12.39781262 362.53598773 -14.10876522 363.8211247 -15.8203125 365.10546875 C-16.6855957 365.75821777 -17.55087891 366.4109668 -18.44238281 367.08349609 C-22.28030217 369.95937114 -26.16812127 372.76380453 -30.0625 375.5625 C-31.55341611 376.63667615 -33.04430149 377.71089495 -34.53515625 378.78515625 C-35.27137207 379.31512207 -36.00758789 379.84508789 -36.76611328 380.39111328 C-40.51359769 383.09012118 -44.25661201 385.79531494 -48 388.5 C-52.48610379 391.74131453 -56.97304831 394.98141954 -61.46484375 398.21484375 C-69.17462973 403.76804624 -76.85757631 409.35437205 -84.5 415 C-92.87948458 421.19011119 -101.31107363 427.30474309 -109.76611328 433.39111328 C-113.51359783 436.09012128 -117.25655939 438.79538754 -121 441.5 C-122.476541 442.56643602 -123.95310358 443.63284216 -125.4296875 444.69921875 C-126.16928711 445.23337402 -126.90888672 445.7675293 -127.67089844 446.31787109 C-129.29394531 447.49007161 -130.91699219 448.66227214 -132.54003906 449.83447266 C-133.3956543 450.45241699 -134.25126953 451.07036133 -135.1328125 451.70703125 C-135.968125 452.3103125 -136.8034375 452.91359375 -137.6640625 453.53515625 C-138.47617187 454.12167969 -139.28828125 454.70820312 -140.125 455.3125 C-142.75 457.20833333 -145.375 459.10416667 -148 461 C-149.15741422 457.52775734 -148.81662931 456.69162725 -147.69921875 453.30834961 C-147.38686279 452.3477211 -147.07450684 451.38709259 -146.75268555 450.39735413 C-146.40117432 449.3471257 -146.04966309 448.29689728 -145.6875 447.21484375 C-145.32503174 446.10825912 -144.96256348 445.0016745 -144.58911133 443.86155701 C-143.80550902 441.47288443 -143.01783544 439.08554443 -142.2265625 436.69940186 C-141.01780962 433.05371512 -139.81972373 429.40470045 -138.625 425.75439453 C-136.96825523 420.69600054 -135.30736932 415.63900391 -133.6418457 410.58349609 C-125.43496582 385.67047548 -117.30812573 360.73529649 -109.36132812 335.73779297 C-106.5637302 326.94681051 -103.74798572 318.16530547 -100.79296875 309.42578125 C-100.54952225 308.70463135 -100.30607574 307.98348145 -100.05525208 307.24047852 C-98.96188041 304.00803612 -97.85850116 300.77985836 -96.73950195 297.55615234 C-96.37171631 296.47930176 -96.00393066 295.40245117 -95.625 294.29296875 C-95.14933594 292.92434692 -95.14933594 292.92434692 -94.6640625 291.52807617 C-93.95384343 288.82428263 -93.63797901 286.77713152 -94 284 C-95.3232649 282.36234551 -95.3232649 282.36234551 -97.26953125 281.16015625 C-98.34122559 280.41245972 -98.34122559 280.41245972 -99.43457031 279.6496582 C-100.21928711 279.125896 -101.00400391 278.60213379 -101.8125 278.0625 C-103.47094864 276.9127505 -105.12847098 275.76166391 -106.78515625 274.609375 C-107.64641113 274.01705078 -108.50766602 273.42472656 -109.39501953 272.81445312 C-113.57794303 269.90091166 -117.66010778 266.8545342 -121.75 263.8125 C-128.26554318 258.99489106 -134.82117479 254.24132567 -141.42578125 249.546875 C-147.87525511 244.96009787 -154.27707393 240.30666647 -160.68994141 235.66894531 C-162.95180829 234.03481701 -165.21576308 232.4036287 -167.48046875 230.7734375 C-175.98992059 224.64502803 -184.45739685 218.46380502 -192.89208984 212.23291016 C-198.26074442 208.27098595 -203.65133092 204.34114133 -209.0625 200.4375 C-210.15630981 199.64762695 -210.15630981 199.64762695 -211.2722168 198.84179688 C-215.15703135 196.03955122 -219.05053003 193.25008946 -222.953125 190.47265625 C-223.76644287 189.89136963 -224.57976074 189.31008301 -225.41772461 188.71118164 C-226.96781649 187.6035668 -228.52055137 186.49963759 -230.07641602 185.40014648 C-231.13107056 184.64519897 -231.13107056 184.64519897 -232.20703125 183.875 C-233.12705933 183.22144531 -233.12705933 183.22144531 -234.06567383 182.5546875 C-236.54481971 180.5621088 -238.75094084 178.24905916 -241 176 C-179.95 176 -118.9 176 -56 176 C-55.67 173.69 -55.34 171.38 -55 169 C-54.30963815 166.51492448 -53.56429972 164.04468968 -52.7746582 161.58935547 C-52.55357297 160.8976721 -52.33248774 160.20598873 -52.10470295 159.49334526 C-51.40974952 157.32669352 -50.7060913 155.16304522 -50 153 C-49.78271114 152.3313517 -49.56542229 151.6627034 -49.34154892 150.97379303 C-48.01556489 146.8972038 -46.67533824 142.8254333 -45.32857323 138.75566673 C-44.57638154 136.48240563 -43.8258754 134.20859359 -43.07575989 131.93464661 C-42.0014109 128.6780283 -40.92657618 125.42157103 -39.85131836 122.16525269 C-31.14374233 95.79116254 -22.51021163 69.39765887 -14.08862305 42.93066406 C-9.51969877 28.57670103 -4.8441434 14.26377038 0 0 Z " fill="#FEFE00" transform="translate(639,172)"/>
</svg>
